<?xml version="1.0" encoding="UTF-8"?>
<svg xmlns="http://www.w3.org/2000/svg" width="128" height="128" viewBox="0 0 128 128" role="img" aria-label="Smart College Management System">
  <title>Smart College Management System</title>
  <!-- Background circle for contrast -->
  <rect width="128" height="128" rx="18" fill="#ffffff" />

  <!-- Gear outline -->
  <g transform="translate(8,8) scale(0.875)">
    <path d="M64 8 L74 8 L80 18 L92 22 L94 34 L104 40 L104 52 L98 62 L102 74 L94 86 L82 88 L76 98 L64 100 L52 98 L46 88 L34 86 L26 74 L30 62 L24 52 L24 40 L34 34 L36 22 L48 18 L54 8 Z" fill="#0f1724"/>
    <!-- inner circle -->
    <circle cx="64" cy="64" r="28" fill="#ffffff" />

    <!-- mortarboard (graduation cap) -->
    <g transform="translate(0,8)">
      <path d="M40 56 L64 44 L88 56 L64 68 Z" fill="#0f1724" />
      <rect x="60" y="68" width="8" height="12" rx="1" fill="#0f1724" />
      <path d="M72 52 C80 56 80 64 72 68" stroke="#0f1724" stroke-width="2" fill="none" stroke-linecap="round" />
      <circle cx="72" cy="68" r="2.4" fill="#0f1724" />
    </g>
  </g>

</svg>
